# xmcd
#
# Track frame offsets:
#	150
#	13128
#	23002
#	40972
#	55866
#	66713
#	82073
#	107524
#	114277
#	126544
#	138368
#	150899
#	166163
#	176500
#
# Disc length: 2539 seconds
# Revision: 2
# Processed by: cddbd v1.5.2PL0 Copyright (c) Steve Scherf et al.
# Submitted via: dBpowerAMP V12.0
#
DISCID=b509e90e
DTITLE=Caleb Klauder and Reeb Willms - Oh Do You Remember
DYEAR=2012
DGENRE=Country
TTITLE0=You Didn't Have to Go
TTITLE1=She Will Get Lonesome
TTITLE2=Thy Burdens Are Greater Than Mine
TTITLE3=Whispering Forest
TTITLE4=Blue from Now on
TTITLE5=Babes in the Woods
TTITLE6=Sinking in the Lonesome Sea
TTITLE7=Gathering Flowers
TTITLE8=Wiley Laws
TTITLE9=Alabama Waltz
TTITLE10=Can I Sleep in Your Barn Tonight Mister
TTITLE11=Are You Teasing Me
TTITLE12=She Didn't Even Notice I Was Gone
TTITLE13=Sad Situation
EXTD=
EXTT0=
EXTT1=
EXTT2=
EXTT3=
EXTT4=
EXTT5=
EXTT6=
EXTT7=
EXTT8=
EXTT9=
EXTT10=
EXTT11=
EXTT12=
EXTT13=
PLAYORDER=
